# xmcd CD database file
#
# Track frame offsets:
#	150
#	13995
#	30915
#	47450
#	59818
#	76625
#	93765
#	108265
#	127125
#	144340
#	159668
#	174283
#	191229
#	207158
#	223793
#	244998
#	260713
#	275453
#
# Disc length: 3896 seconds
#
# Revision: 0
# Processed by: cddbd v1.5.1PL2 Copyright (c) Steve Scherf et al.
# Submitted via: CDex 1.50
#
DISCID=010f3612
DTITLE=Various  - Country greatest CD1
DYEAR=2000
DGENRE=Country
TTITLE0=Jill Morris - Limbo
TTITLE1=Blackhawk - I'm not strong enough to say no
TTITLE2=Lari White - That's how you know (when you're in love)
TTITLE3=Pam Tillis - When you walk in the room
TTITLE4=Alabama - A better word for love
TTITLE5=Clint Black - Desperado (Live)
TTITLE6=Don Williams - Back in my younger days
TTITLE7=Matraca Berg - Lying to the moon
TTITLE8=Paul Overstreet - Sowin' love
TTITLE9=Aaron Tippin - My blue angel
TTITLE10=Diamond Rio - Meet in the middle
TTITLE11=K.T. Oslin - Come next monday
TTITLE12=Lorrie Morgan - Five minutes
TTITLE13=Keith Whitley - When you say nothing at all
TTITLE14=Restless Heart - Bluest eyes in Texas
TTITLE15=Steve Wariner - All roads lead to you
TTITLE16=Ronnie Milsap - (There's) No gettin' over me 
TTITLE17=Tom T. Hall - Mr. Bojangles
EXTD=YEAR: 2000
EXTT0=
EXTT1=
EXTT2=
EXTT3=
EXTT4=
EXTT5=
EXTT6=
EXTT7=
EXTT8=
EXTT9=
EXTT10=
EXTT11=
EXTT12=
EXTT13=
EXTT14=
EXTT15=
EXTT16=
EXTT17=
PLAYORDER=
